<svg width="300" height="72" viewBox="0 0 300 72" fill="none" xmlns="http://www.w3.org/2000/svg">
  <rect x="1" y="1" width="298" height="70" rx="0" fill="#00170B" stroke="#20D080" stroke-opacity="0.45"/>
  <path d="M34 50V22H40V50H34ZM45 50V29H50.6V32.2C52 30 54.7 28.8 57.8 28.8C63.3 28.8 66.4 32.5 66.4 38.2V50H60.8V39.1C60.8 35.8 59.3 33.8 56.2 33.8C53 33.8 50.6 35.9 50.6 39.5V50H45ZM73.2 24.6C71.4 24.6 70 23.3 70 21.6C70 19.9 71.4 18.6 73.2 18.6C75 18.6 76.4 19.9 76.4 21.6C76.4 23.3 75 24.6 73.2 24.6ZM70.4 50V29H76V50H70.4ZM83.8 50V33.7H79.8V29H83.8V22H89.4V29H95.2V33.7H89.4V49.9L83.8 50ZM97.6 50V29H103.2V33.1C104.4 30.1 107.1 28.8 110.3 28.8H112.2V34.3H109.8C105.6 34.3 103.2 36.8 103.2 41.2V50H97.6ZM124.4 50.5C117.8 50.5 113.2 45.8 113.2 39.8C113.2 33.7 118 28.8 124.3 28.8C130.7 28.8 135.4 33.7 135.4 39.8C135.4 45.8 130.9 50.5 124.4 50.5ZM124.3 45.6C127.8 45.6 129.8 42.8 129.8 39.8C129.8 36.7 127.8 33.7 124.3 33.7C120.8 33.7 118.8 36.7 118.8 39.8C118.8 42.8 120.9 45.6 124.3 45.6ZM138.8 50V29H144.4V32.3C145.8 30 148.5 28.8 151.7 28.8C157.4 28.8 161.5 33.5 161.5 39.7C161.5 45.8 157.6 50.5 151.8 50.5C149.1 50.5 146.7 49.4 145.4 47.6V58H139.8V50ZM150.5 45.5C153.9 45.5 155.9 42.9 155.9 39.7C155.9 36.6 153.9 33.8 150.5 33.8C147.1 33.8 145.2 36.5 145.2 39.7C145.2 42.8 147.1 45.5 150.5 45.5ZM174.6 50.5C168.3 50.5 163.8 46 163.8 39.8C163.8 33.8 168.1 28.8 174.4 28.8C180.7 28.8 184.8 33.7 184.8 39.7V41.2H169.3C169.6 44.1 171.7 46 174.9 46C177.3 46 178.9 45 179.8 43.3H184.6C183.2 47.7 179.4 50.5 174.6 50.5ZM169.4 37.3H179.3C178.9 34.9 177 33.2 174.4 33.2C171.7 33.2 169.8 34.8 169.4 37.3ZM187.9 50V29H193.5V32.2C194.9 30 197.4 28.8 200.3 28.8C205.7 28.8 208.8 32.5 208.8 38.1V50H203.2V39.2C203.2 35.9 201.8 33.9 198.8 33.9C195.8 33.9 193.5 36 193.5 39.5V50H187.9ZM213.3 50V20.4H218.9V50H213.3ZM224.3 58V29H229.9V32.3C231.3 30 234 28.8 237.2 28.8C242.9 28.8 247 33.5 247 39.7C247 45.8 243.1 50.5 237.3 50.5C234.7 50.5 232.3 49.4 230.9 47.6V58H224.3ZM236.1 45.5C239.4 45.5 241.4 42.9 241.4 39.7C241.4 36.6 239.4 33.8 236.1 33.8C232.7 33.8 230.7 36.5 230.7 39.7C230.7 42.8 232.7 45.5 236.1 45.5ZM250.8 50V20.4H256.4V50H250.8ZM262.4 24.6C260.6 24.6 259.2 23.3 259.2 21.6C259.2 19.9 260.6 18.6 262.4 18.6C264.2 18.6 265.6 19.9 265.6 21.6C265.6 23.3 264.2 24.6 262.4 24.6ZM259.6 50V29H265.2V50H259.6Z" fill="#95F4C9"/>
</svg>
